<svg viewBox="0 0 820 220" width="820" height="220" xmlns="http://www.w3.org/2000/svg" font-family="sans-serif" font-size="13">
  <defs>
    <marker id="a" markerWidth="9" markerHeight="9" refX="7" refY="3" orient="auto"><path d="M0,0 L7,3 L0,6 z" fill="#475569"/></marker>
  </defs>
  <rect x="0" y="0" width="820" height="220" fill="#ffffff"/>
  <rect x="20" y="50" width="150" height="46" rx="6" fill="#e2e8f0" stroke="#475569"/>
  <text x="95" y="69" text-anchor="middle">FrontCacheFilter</text>
  <text x="95" y="85" text-anchor="middle" fill="#64748b">(filter mode)</text>
  <rect x="20" y="124" width="150" height="46" rx="6" fill="#e2e8f0" stroke="#475569"/>
  <text x="95" y="143" text-anchor="middle">FrontCacheServlet</text>
  <text x="95" y="159" text-anchor="middle" fill="#64748b">(standalone mode)</text>
  <rect x="300" y="20" width="270" height="182" rx="8" fill="#eef2ff" stroke="#4338ca"/>
  <text x="435" y="40" text-anchor="middle" font-weight="bold" fill="#4338ca">FrontCacheEngine (singleton)</text>
  <rect x="320" y="55" width="230" height="38" rx="6" fill="#e0e7ff" stroke="#4338ca"/>
  <text x="435" y="78" text-anchor="middle">CacheProcessor (L1 Ehcache + L2 Lucene)</text>
  <rect x="320" y="103" width="230" height="38" rx="6" fill="#e0e7ff" stroke="#4338ca"/>
  <text x="435" y="126" text-anchor="middle">IncludeProcessor (concurrent fc:include)</text>
  <rect x="320" y="151" width="230" height="38" rx="6" fill="#e0e7ff" stroke="#4338ca"/>
  <text x="435" y="174" text-anchor="middle">Hystrix command + FallbackResolver</text>
  <rect x="650" y="88" width="150" height="46" rx="6" fill="#fee2e2" stroke="#dc2626"/>
  <text x="725" y="116" text-anchor="middle">Origin web app</text>
  <line x1="170" y1="73" x2="296" y2="95" stroke="#475569" marker-end="url(#a)"/>
  <line x1="170" y1="147" x2="296" y2="125" stroke="#475569" marker-end="url(#a)"/>
  <line x1="570" y1="111" x2="646" y2="111" stroke="#475569" marker-end="url(#a)"/>
</svg>
