<svg viewBox="0 0 720 510" width="720" height="510" xmlns="http://www.w3.org/2000/svg" font-family="sans-serif" font-size="12">
  <defs>
    <marker id="a" markerWidth="9" markerHeight="9" refX="7" refY="3" orient="auto"><path d="M0,0 L7,3 L0,6 z" fill="#475569"/></marker>
  </defs>
  <rect x="0" y="0" width="720" height="510" fill="#ffffff"/>
  <polygon points="150,60 260,20 370,60 260,100" fill="#fef9c3" stroke="#ca8a04"/><text x="260" y="64" text-anchor="middle">Is the app Java/servlet?</text>
  <rect x="480" y="38" width="210" height="44" rx="6" fill="#e0e7ff" stroke="#4338ca"/><text x="585" y="56" text-anchor="middle">Use case #2:</text><text x="585" y="71" text-anchor="middle">standalone proxy</text>
  <polygon points="140,190 260,150 380,190 260,230" fill="#fef9c3" stroke="#ca8a04"/><text x="260" y="186" text-anchor="middle">Need separate cache</text><text x="260" y="200" text-anchor="middle">tier / edge isolation?</text>
  <rect x="480" y="168" width="210" height="44" rx="6" fill="#e0e7ff" stroke="#4338ca"/><text x="585" y="186" text-anchor="middle">Use case #1:</text><text x="585" y="201" text-anchor="middle">servlet filter</text>
  <polygon points="150,320 260,280 370,320 260,360" fill="#fef9c3" stroke="#ca8a04"/><text x="260" y="316" text-anchor="middle">Global / multi-region</text><text x="260" y="330" text-anchor="middle">audience?</text>
  <rect x="480" y="298" width="220" height="44" rx="6" fill="#e0e7ff" stroke="#4338ca"/><text x="590" y="316" text-anchor="middle">Standalone edge (#2)</text><text x="590" y="331" text-anchor="middle">in front of Java app</text>
  <rect x="140" y="430" width="260" height="50" rx="6" fill="#e0e7ff" stroke="#4338ca"/><text x="270" y="451" text-anchor="middle">Use case #3:</text><text x="270" y="466" text-anchor="middle">GSLB → N edges → filtered origin</text>
  <line x1="370" y1="60" x2="476" y2="60" stroke="#475569" marker-end="url(#a)"/><text x="410" y="52" fill="#dc2626">no</text>
  <line x1="260" y1="100" x2="260" y2="148" stroke="#475569" marker-end="url(#a)"/><text x="266" y="128" fill="#16a34a">yes</text>
  <line x1="380" y1="190" x2="476" y2="190" stroke="#475569" marker-end="url(#a)"/><text x="415" y="182" fill="#dc2626">no</text>
  <line x1="260" y1="230" x2="260" y2="278" stroke="#475569" marker-end="url(#a)"/><text x="266" y="258" fill="#16a34a">yes</text>
  <line x1="370" y1="320" x2="476" y2="320" stroke="#475569" marker-end="url(#a)"/><text x="410" y="312" fill="#dc2626">no</text>
  <line x1="260" y1="360" x2="268" y2="428" stroke="#475569" marker-end="url(#a)"/><text x="274" y="398" fill="#16a34a">yes</text>
</svg>
